# xmcd CD database file
#
# Track frame offsets:
#	150
#	19545
#	36762
#	64965
#	84568
#	111559
#	115738
#	139549
#	165049
#	216928
#	242965
#	286276
#
# Disc length: 4430 seconds
#
# Revision: 0
# Processed by: cddbd v1.5.2PL0 Copyright (c) Steve Scherf et al.
# Submitted via: CDex 1.70beta2
#
DISCID=a3114c0c
DTITLE=Gary Moore - Blues For Jimi
DYEAR=2012
DGENRE=Blues
TTITLE0=Purple Haze
TTITLE1=Manic Depression
TTITLE2=Foxey Lady
TTITLE3=The Wind Cries Mary
TTITLE4=I Don't Live Today
TTITLE5=My Angel
TTITLE6=Angel
TTITLE7=Fire
TTITLE8=Red House
TTITLE9=Stone Free
TTITLE10=Hey Joe
TTITLE11=Voodoo Child (Slight Return)
EXTD=YEAR: 2012
EXTT0=
EXTT1=
EXTT2=
EXTT3=
EXTT4=
EXTT5=
EXTT6=
EXTT7=
EXTT8=
EXTT9=
EXTT10=
EXTT11=
PLAYORDER=
